<svg width="713" height="677" xmlns="http://www.w3.org/2000/svg" xmlns:xlink="http://www.w3.org/1999/xlink" xml:space="preserve" overflow="hidden"><defs><linearGradient x1="1970" y1="464.749" x2="1970" y2="-68.7489" gradientUnits="userSpaceOnUse" spreadMethod="pad" id="fill0"><stop offset="0" stop-color="#198AB3"/><stop offset="0.09" stop-color="#1F9DC4"/><stop offset="0.24" stop-color="#28B5D9"/><stop offset="0.4" stop-color="#2DC6E9"/><stop offset="0.57" stop-color="#31D1F2"/><stop offset="0.78" stop-color="#32D4F5"/><stop offset="1" stop-color="#32D4F5"/></linearGradient><linearGradient x1="1948.17" y1="278.161" x2="1948.17" y2="384.247" gradientUnits="userSpaceOnUse" spreadMethod="pad" id="fill1"><stop offset="0" stop-color="#C69AEB"/><stop offset="1" stop-color="#6F4BB2"/></linearGradient></defs><g transform="translate(-1663 172)"><g><g><g><path d="M2146.7 91.9144C2144.09 1.07418 2068.7-70.6598 1977.85-68.7489 1905.5-69.4928 1840.56-24.5112 1815.82 43.4767 1738.48 54.1432 1680.68 119.933 1680.06 198 1683.21 285.318 1756.1 353.802 1843.45 351.5 1848.22 351.834 1853 351.834 1857.77 351.5L1898.71 351.5C1896.22 345.438 1894.95 338.951 1894.96 332.398L1894.96 332.398C1895.08 323.652 1897.43 315.083 1901.78 307.497L1854.02 307.497 1843.45 307.497C1780.34 309.639 1727.04 261.041 1723.38 198 1723.95 141.24 1766.33 93.6132 1822.64 86.4567L1848.56 82.3633 1857.09 57.4622C1875.81 7.11219 1924.13-26.0581 1977.85-25.4278 2044.77-26.9726 2100.6 25.3698 2103.37 92.2556L2103.37 129.778 2140.56 134.894C2183.64 140.408 2216.32 176.418 2217.65 219.831 2216 268.044 2176.52 306.32 2128.28 306.473L2123.16 306.473 2120.43 306.473 2086.32 306.473C2074.17 243.252 2018.69 197.664 1954.31 198 1942.35 196.496 1931.43 204.974 1929.93 216.937 1928.42 228.9 1936.9 239.817 1948.86 241.321 1950.67 241.55 1952.5 241.55 1954.31 241.321 2004.14 244.388 2042.05 287.265 2038.98 337.095 2036.18 382.647 1999.86 418.965 1954.31 421.769 1942.35 420.265 1931.43 428.745 1929.93 440.707 1928.42 452.67 1936.9 463.586 1948.86 465.09 1950.67 465.319 1952.5 465.319 1954.31 465.09 2020.43 464.974 2076.54 416.55 2086.32 351.159L2122.14 351.159C2124.4 351.517 2126.7 351.517 2128.96 351.159 2200.89 349.88 2258.85 291.771 2259.94 219.831 2258.74 155.165 2210.74 100.951 2146.7 91.9144Z" fill="url(#fill0)"/><path d="M1948.85 278.161C1977.86 278.161 2001.38 301.68 2001.38 330.692L2001.38 332.057C2001.38 361.069 1977.86 384.588 1948.85 384.588L1947.49 384.588C1918.47 384.588 1894.96 361.069 1894.96 332.057L1894.96 330.692C1894.96 301.68 1918.47 278.161 1947.49 278.161Z" fill="url(#fill1)"/></g></g></g><g><g><g><path d="M473.281 206.972 453.991 200.708C448.127 198.76 442.799 195.472 438.43 191.106 434.06 186.74 430.769 181.415 428.818 175.555L422.551 156.281C422.027 154.795 421.054 153.509 419.766 152.599 418.479 151.689 416.941 151.2 415.364 151.2 413.789 151.2 412.252 151.689 410.964 152.599 409.676 153.509 408.704 154.795 408.179 156.281L401.91 175.555C400 181.374 396.769 186.672 392.47 191.035 388.168 195.399 382.916 198.71 377.126 200.708L357.835 206.972C356.348 207.496 355.06 208.468 354.151 209.754 353.241 211.04 352.75 212.577 352.75 214.152 352.75 215.727 353.241 217.264 354.151 218.55 355.06 219.836 356.348 220.808 357.835 221.332L377.126 227.596C383 229.553 388.334 232.856 392.704 237.24 397.076 241.624 400.36 246.968 402.298 252.844L408.565 272.12C409.089 273.606 410.062 274.892 411.35 275.801 412.637 276.711 414.175 277.2 415.75 277.2 417.327 277.2 418.864 276.711 420.152 275.801 421.44 274.892 422.412 273.606 422.937 272.12L429.204 252.844C431.154 246.985 434.445 241.661 438.815 237.294 443.185 232.928 448.512 229.64 454.376 227.692L473.667 221.428C475.154 220.904 476.441 219.932 477.351 218.646 478.261 217.36 478.75 215.824 478.75 214.248 478.75 212.673 478.261 211.137 477.351 209.851 476.441 208.565 475.154 207.593 473.667 207.069L473.281 206.972Z" fill="#8D66C6" transform="matrix(1 0 0 1 1872 -136)"/></g></g></g><g><g><g><path d="M362.852 7.38086 371.96 35.3822C374.792 43.8951 379.572 51.6308 385.919 57.9743 392.268 64.3177 400.009 69.0943 408.528 71.924L436.551 81.0244 437.113 81.1646C439.273 81.9258 441.143 83.3379 442.466 85.2061 443.789 87.0742 444.498 89.3064 444.498 91.5951 444.498 93.8837 443.789 96.1159 442.466 97.984 441.143 99.8522 439.273 101.264 437.113 102.026L409.09 111.126C400.571 113.956 392.828 118.732 386.481 125.076 380.132 131.419 375.352 139.155 372.52 147.668L363.412 175.669C362.651 177.828 361.236 179.696 359.369 181.018 357.499 182.34 355.263 183.05 352.973 183.05 350.684 183.05 348.449 182.34 346.579 181.018 346.396 180.888 346.215 180.752 346.04 180.611 344.437 179.325 343.221 177.615 342.536 175.669L333.428 147.668C332.939 146.182 332.39 144.72 331.783 143.284 328.907 136.469 324.738 130.257 319.493 124.997 318.496 123.996 317.464 123.035 316.399 122.113 310.691 117.169 304.051 113.383 296.857 110.986L268.835 101.886C266.675 101.124 264.805 99.712 263.482 97.8439 262.159 95.9757 261.449 93.7435 261.449 91.4551 261.449 89.1665 262.159 86.9343 263.482 85.0662 264.805 83.198 266.675 81.7859 268.835 81.0244L296.857 71.924C305.275 69.0206 312.903 64.211 319.15 57.8718 325.397 51.5325 330.091 43.8355 332.868 35.3822L341.974 7.38086C342.737 5.22268 344.15 3.35379 346.019 2.03185 347.889 0.709902 350.122 0 352.413 0 354.704 0 356.937 0.709902 358.807 2.03185 360.676 3.35379 362.091 5.22268 362.852 7.38086Z" fill="#8D66C6" transform="matrix(1 0 0 1 1822 -172)"/></g></g></g></g></svg>